<?xml version="1.0" encoding="utf-8"?>
<!-- Generator: Adobe Illustrator 19.0.0, SVG Export Plug-In . SVG Version: 6.00 Build 0)  -->
<svg version="1.1" id="Layer_1" xmlns="http://www.w3.org/2000/svg" xmlns:xlink="http://www.w3.org/1999/xlink" x="0px" y="0px"
	 viewBox="0 0 394.7 125.9" style="enable-background:new 0 0 394.7 125.9;" xml:space="preserve">
<style type="text/css">
	.st0{fill:#FFFFFF;}
	.st1{fill:#E60012;}
</style>
<g id="XMLID_79_">
	<path id="XMLID_106_" class="st0" d="M41.6,108.1h-2.2V95.5c0-0.5,0-1.1,0-1.7c0-0.6,0.1-1.3,0.1-2h-0.1c-0.1,0.2-0.1,0.4-0.2,0.7
		c-0.1,0.3-0.2,0.5-0.3,0.7c-0.1,0.2-0.2,0.5-0.3,0.6c-0.1,0.2-0.2,0.3-0.2,0.4l-4.8,8.9h-1.1l-4.8-8.8c0-0.1-0.1-0.3-0.2-0.5
		c-0.1-0.2-0.2-0.4-0.3-0.7c-0.1-0.2-0.2-0.5-0.3-0.7c-0.1-0.3-0.2-0.5-0.2-0.7h-0.1c0,0.4,0.1,0.9,0.1,1.5c0,0.6,0,1.4,0,2.2v12.5
		h-2.1V89.4h2.7l4.8,8.9c0.2,0.4,0.4,0.8,0.5,1.1c0.1,0.3,0.3,0.6,0.3,0.9h0.1c0.1-0.3,0.2-0.6,0.3-0.9c0.1-0.3,0.3-0.7,0.6-1.1
		l4.8-8.8h2.7V108.1z"/>
	<path id="XMLID_103_" class="st0" d="M75.7,108.1h-2.4l-2-5.2h-7.9l-1.9,5.2H59l7.2-18.7h2.3L75.7,108.1z M70.5,100.9l-2.9-8
		c-0.1-0.3-0.2-0.7-0.3-1.3h0c-0.1,0.5-0.2,0.9-0.3,1.3l-2.9,8H70.5z"/>
	<path id="XMLID_100_" class="st0" d="M106.4,108.1h-2.6l-3.1-5.2c-0.3-0.5-0.6-0.9-0.8-1.2c-0.3-0.3-0.5-0.6-0.8-0.8
		c-0.3-0.2-0.6-0.4-0.9-0.5c-0.3-0.1-0.7-0.2-1.1-0.2h-1.8v8H93V89.4h5.6c0.8,0,1.6,0.1,2.3,0.3c0.7,0.2,1.3,0.5,1.8,0.9
		c0.5,0.4,0.9,0.9,1.2,1.6c0.3,0.6,0.4,1.3,0.4,2.2c0,0.7-0.1,1.2-0.3,1.8c-0.2,0.5-0.5,1-0.8,1.5c-0.4,0.4-0.8,0.8-1.3,1.1
		c-0.5,0.3-1.1,0.5-1.7,0.7v0.1c0.3,0.1,0.6,0.3,0.8,0.5c0.2,0.2,0.5,0.4,0.7,0.6c0.2,0.2,0.4,0.5,0.6,0.8c0.2,0.3,0.4,0.7,0.7,1.1
		L106.4,108.1z M95.2,91.4v6.8h3c0.5,0,1.1-0.1,1.5-0.2c0.5-0.2,0.9-0.4,1.2-0.7c0.3-0.3,0.6-0.7,0.8-1.1c0.2-0.4,0.3-0.9,0.3-1.5
		c0-1-0.3-1.8-1-2.3c-0.6-0.6-1.6-0.8-2.8-0.8H95.2z"/>
	<path id="XMLID_98_" class="st0" d="M125.8,108.1h-2.2V89.4h2.2V108.1z"/>
	<path id="XMLID_96_" class="st0" d="M160.4,108.1h-2.7l-9.6-14.9c-0.2-0.4-0.4-0.8-0.6-1.2h-0.1c0.1,0.4,0.1,1.3,0.1,2.6v13.5h-2.2
		V89.4h2.8l9.4,14.7c0.4,0.6,0.6,1,0.8,1.3h0.1c-0.1-0.5-0.1-1.5-0.1-2.8V89.4h2.2V108.1z"/>
	<path id="XMLID_94_" class="st0" d="M189.9,108.1H180V89.4h9.5v2h-7.3v6.2h6.8v2h-6.8v6.5h7.7V108.1z"/>
	<path id="XMLID_91_" class="st0" d="M210.3,101v7.1h-2.2V89.4h5.1c2,0,3.5,0.5,4.6,1.5c1.1,1,1.7,2.3,1.7,4.1
		c0,1.8-0.6,3.2-1.8,4.4c-1.2,1.1-2.9,1.7-5,1.7H210.3z M210.3,91.4V99h2.3c1.5,0,2.7-0.3,3.5-1c0.8-0.7,1.2-1.7,1.2-2.9
		c0-2.5-1.5-3.7-4.4-3.7H210.3z"/>
	<path id="XMLID_89_" class="st0" d="M247.4,108.1h-9.7V89.4h2.2v16.7h7.5V108.1z"/>
	<path id="XMLID_86_" class="st0" d="M279.4,108.1H277l-2-5.2H267l-1.9,5.2h-2.4l7.2-18.7h2.3L279.4,108.1z M274.3,100.9l-2.9-8
		c-0.1-0.3-0.2-0.7-0.3-1.3H271c-0.1,0.5-0.2,0.9-0.3,1.3l-2.9,8H274.3z"/>
	<path id="XMLID_84_" class="st0" d="M311.8,108.1h-2.7l-9.6-14.9c-0.2-0.4-0.4-0.8-0.6-1.2h-0.1c0.1,0.4,0.1,1.3,0.1,2.6v13.5h-2.2
		V89.4h2.8L309,104c0.4,0.6,0.6,1,0.8,1.3h0c-0.1-0.5-0.1-1.5-0.1-2.8V89.4h2.2V108.1z"/>
	<path id="XMLID_82_" class="st0" d="M341.3,108.1h-9.9V89.4h9.5v2h-7.3v6.2h6.8v2h-6.8v6.5h7.7V108.1z"/>
	<path id="XMLID_80_" class="st0" d="M370.6,91.4h-5.4v16.7H363V91.4h-5.4v-2h13V91.4z"/>
</g>
<g id="XMLID_66_">
	<path id="XMLID_77_" class="st1" d="M63.7,18.9v15.6c-1.6-0.4-2.9-0.6-3.8-0.6c-1.7,0-3.2,0.5-4.4,1.4c-1.2,0.9-1.8,2-1.8,3.3
		c0,1.1,0.7,2.5,2,4.2l1.7,2.2c3.1,3.9,4.7,7.7,4.7,11.3c0,5.3-2.6,9.8-7.9,13.5C49,73.4,42.6,75.2,35,75.2c-3.6,0-7.2-0.6-10.8-1.8
		V57.6c2.2,1,4.1,1.5,5.7,1.5c2,0,3.6-0.4,4.9-1.2c1.3-0.8,2-1.8,2-3.1c0-0.8-1.1-2.5-3.2-5.2c-3.4-4.3-5.1-8.5-5.1-12.8
		c0-5.1,2.6-9.6,7.7-13.3c5.1-3.7,11.2-5.6,18.3-5.6C57.7,17.8,60.7,18.2,63.7,18.9z"/>
	<path id="XMLID_75_" class="st1" d="M115.8,40.5v12.2H101c-2,0-3.4,0.2-4.3,0.6c-0.8,0.4-1.3,1.1-1.3,2.2c0,1.1,0.4,1.9,1.3,2.3
		c0.9,0.4,2.6,0.5,5.2,0.5h15.2v15.6H99.5c-8.4,0-14.8-1.4-19.2-4.3c-4.4-2.9-6.6-7-6.6-12.4V35.7c0-5.2,2.1-9.3,6.3-12.2
		c4.2-2.9,10.1-4.3,17.6-4.3h19.7v15.7h-14.4c-3.9,0-5.9,0.9-5.9,2.7c0,1.1,0.5,1.8,1.4,2.2c0.9,0.4,2.6,0.6,5,0.6H115.8z"/>
	<path id="XMLID_73_" class="st1" d="M157.8,46.4v14.4h-6.5v13h-22.6V39.1c0-6.7,2.6-12,7.7-15.7c5.1-3.7,12.3-5.6,21.5-5.6
		c8.9,0,15.5,1.7,19.8,5.1c4.3,3.4,6.4,8.6,6.4,15.6v35.3h-22.6V39.6c0-2.1-0.3-3.6-1.1-4.4c-0.7-0.8-2-1.2-3.8-1.2
		c-3.5,0-5.3,1.9-5.3,5.7v6.8H157.8z"/>
	<path id="XMLID_71_" class="st1" d="M196.3,73.9V38.4c0-6.2,2.6-11.2,7.8-14.9c5.2-3.7,12.1-5.6,20.7-5.6c8.6,0,15.2,1.8,19.7,5.4
		c4.5,3.6,6.8,8.9,6.8,15.7v34.9h-22.6V38.9c0-3.3-1.7-5-5-5c-3.2,0-4.8,1.7-4.8,5v34.9H196.3z"/>
	<path id="XMLID_69_" class="st1" d="M305.7,40.5v12.2h-14.8c-2,0-3.4,0.2-4.3,0.6c-0.8,0.4-1.3,1.1-1.3,2.2c0,1.1,0.4,1.9,1.3,2.3
		c0.9,0.4,2.6,0.5,5.2,0.5h15.2v15.6h-17.8c-8.4,0-14.8-1.4-19.2-4.3c-4.4-2.9-6.6-7-6.6-12.4V35.7c0-5.2,2.1-9.3,6.3-12.2
		c4.2-2.9,10.1-4.3,17.6-4.3h19.7v15.7h-14.4c-3.9,0-5.9,0.9-5.9,2.7c0,1.1,0.5,1.8,1.4,2.2c0.9,0.4,2.6,0.6,5,0.6H305.7z"/>
	<path id="XMLID_67_" class="st1" d="M353.2,34.9v39h-22.6v-39h-17.3V19.2h57.3v15.7H353.2z"/>
</g>
</svg>
